<svg id="Слой_1" data-name="Слой 1" xmlns="http://www.w3.org/2000/svg" viewBox="0 0 63 63"><title>password</title><circle cx="31.5" cy="31.5" r="24.5" style="fill:#d63128"/><path d="M31.5,14A17.5,17.5,0,1,1,14,31.5,17.52,17.52,0,0,1,31.5,14m0-14A31.5,31.5,0,1,0,63,31.5,31.5,31.5,0,0,0,31.5,0Z" style="fill:#d63128"/><path d="M42.38,50H20.63A3.64,3.64,0,0,1,17,46.37V29.46a3.64,3.64,0,0,1,3.63-3.63H42.38A3.63,3.63,0,0,1,46,29.46V46.37A3.63,3.63,0,0,1,42.38,50ZM20.63,28.25a1.21,1.21,0,0,0-1.21,1.21V46.37a1.21,1.21,0,0,0,1.21,1.21H42.38a1.21,1.21,0,0,0,1.2-1.21V29.46a1.21,1.21,0,0,0-1.2-1.21Z" style="fill:#fff"/><path d="M40,28.25A1.21,1.21,0,0,1,38.75,27V21a7.25,7.25,0,0,0-14.5,0v6a1.21,1.21,0,0,1-2.42,0V21a9.67,9.67,0,0,1,19.34,0v6A1.21,1.21,0,0,1,40,28.25Z" style="fill:#fff"/><path d="M31.5,38.72a3.22,3.22,0,1,1,3.22-3.22A3.22,3.22,0,0,1,31.5,38.72Zm0-4a.81.81,0,1,0,.81.81A.82.82,0,0,0,31.5,34.69Z" style="fill:#fff"/><path d="M31.5,43.56a1.21,1.21,0,0,1-1.21-1.21V37.92a1.21,1.21,0,0,1,2.42,0v4.43A1.21,1.21,0,0,1,31.5,43.56Z" style="fill:#fff"/></svg>