<svg id="Слой_1" data-name="Слой 1" xmlns="http://www.w3.org/2000/svg" viewBox="0 0 63 63"><title>user</title><circle cx="31.5" cy="31.5" r="24.5" style="fill:#d63128"/><path d="M31.5,14A17.5,17.5,0,1,1,14,31.5,17.52,17.52,0,0,1,31.5,14m0-14A31.5,31.5,0,1,0,63,31.5,31.5,31.5,0,0,0,31.5,0Z" style="fill:#d63128"/><path d="M31.57,32.16A16.58,16.58,0,0,0,15,48.73a1.28,1.28,0,0,0,2.55,0,14,14,0,0,1,28,0,1.28,1.28,0,0,0,2.55,0A16.59,16.59,0,0,0,31.57,32.16Z" style="fill:#fff"/><path d="M31.57,11.76a8.93,8.93,0,1,0,8.92,8.93A8.94,8.94,0,0,0,31.57,11.76Zm0,15.3a6.38,6.38,0,1,1,6.37-6.37A6.38,6.38,0,0,1,31.57,27.06Z" style="fill:#fff"/></svg>